{"title":"Narcos S02 1080p WebRip HEVC x265 MeGusta Dual Tsukuba","uid":15769153,"size":12960376890,"categoryP":"video","categoryS":"hd___movies","magnet":"?xt=urn:btih:26e6487aa42fd5ffdf5c68689eb800e0b46311d5&amp;dn=Narcos+S02+1080p+WebRip+HEVC+x265+MeGusta+Dual+Tsukuba&amp;tr=udp%3A%2F%2Ftracker.leechers-paradise.org%3A6969&amp;tr=udp%3A%2F%2Fzer0day.ch%3A1337&amp;tr=udp%3A%2F%2Fopen.demonii.com%3A1337&amp;tr=udp%3A%2F%2Ftracker.coppersurfer.tk%3A6969&amp;tr=udp%3A%2F%2Fexodus.desync.com%3A6969","seeders":21,"leechers":9,"uploader":"Alemao99","files":11,"time":1473187634,"description":"In Narcos, we follow the rise of Pablo Escobar and the Medellin cartel to reach the American market. The purpose of the series is to show in detail the clash between the forces in conflict, whether legal, political, police, military or civilian, culminating in efforts to control cocaine. Narcos is the real story of the efforts of the United States and Colombia to combat the feared drug lord Pablo Escobar and the Medellin cartel, one of the richest criminal organizations and ruthless history.\r\n \r\nList of Episodes\r\n \r\n  01 - Free at Last\r\n  02 - Cambalache\r\n  03 - Our Man in Madrid\r\n  04 - The Good, The Bad, and The Dead\r\n  05 - The Enemies of my Enemy\r\n  06 - Pepes\r\n  07 - 93 Deutschland\r\n  08 - Exit El Patrón\r\n  09 - Nuestra Fincax\r\n  10 - Al Fin Cayo!\r\n\r\nVideo codec: x265\r\nAudio codec: AC3 2.0 / AC3 ​​5.1\r\nAudio Language: Portuguese / English\r\nLegend: Embedded\r\nVideo Quality: WEBRip\r\nExtension File: MKV\r\nResolution: 1920 x 1080\r\nIMDB: http://www.imdb.com/title/tt2707408/\r\n\r\nFile Size: 7.12 Gb\r\n\r\nNarcos.S02.1080.HEVC.x265-MeGusta.Dual-Tsukuba\r\n\r\nvideo\r\nID NO: 1\r\nFormat: V_MPEGH / ISO / HEVC\r\nCodec ID: V_MPEGH / ISO / HEVC\r\nDuration: 53mn 43s\r\nBit rate: 388 Kbps 2\r\nWidth: 1,920 pixels\r\nHeight: 080 pixels 1\r\nDisplay aspect ratio: 16: 9\r\nFrame rate: 23.976 fps\r\nBits / (Pixel * Frame): 0.048\r\nStream size: 918 MiB (73%)\r\nDefault: Yes\r\nForced On\r\nDURATION: 00: 53: 42.991000000\r\nNUMBER_OF_FRAMES: 77274\r\nNumber_of_bytes: 987521899\r\n_STATISTICS_WRITING_APP: Mkvmerge v9.4.0 ( 'Knurl') 64bit\r\n_STATISTICS_WRITING_DATE_UTC: 03/09/2016 13:42:17\r\n_STATISTICS_TAGS: BPS DURATION NUMBER_OF_FRAMES number_of_bytes\r\n\r\nAudio # 1\r\nID NO: 2\r\nFormat: AC-3\r\nFormat / Info: Audio Coding 3\r\nMode extension: CM (complete main)\r\nCodec ID: A_AC3\r\nDuration: 53mn 43s\r\nBit rate mode: Constant\r\nBit rate: 640 Kbps\r\nChannel (s): 6 channels\r\nChannel positions: Front: L C R, Side: LR, LFE\r\nSampling rate: 48.0 KHz\r\nBit depth: 16-bit\r\nCompression mode: Lossy\r\nStream size: 246 MiB (19%)\r\nLanguage: Inglês\r\nDefault: Yes\r\nForced On\r\n\r\nAudio # 2\r\nID: 3\r\nFormat: AC-3\r\nFormat / Info: Audio Coding 3\r\nFormat profile: Dolby Digital\r\nMode extension: CM (complete main)\r\nCodec ID: A_AC3\r\nDuration: 53mn 43s\r\nBit rate mode: Constant\r\nBit rate: 192 Kbps\r\nChannel (s): 2 channels\r\nChannel positions: Front: L R\r\nSampling rate: 48.0 KHz\r\nBit depth: 16-bit\r\nCompression mode: Lossy\r\nStream size: 73.8 MiB (6%)\r\nLanguage: Portuguese\r\nDefault: No\r\nForced On","torrent":{"xt":"urn:btih:26e6487aa42fd5ffdf5c68689eb800e0b46311d5","amp;dn":"Narcos+S02+1080p+WebRip+HEVC+x265+MeGusta+Dual+Tsukuba","amp;tr":["udp%3A%2F%2Ftracker.leechers-paradise.org%3A6969","udp%3A%2F%2Fzer0day.ch%3A1337","udp%3A%2F%2Fopen.demonii.com%3A1337","udp%3A%2F%2Ftracker.coppersurfer.tk%3A6969","udp%3A%2F%2Fexodus.desync.com%3A6969"],"infoHash":"26e6487aa42fd5ffdf5c68689eb800e0b46311d5","infoHashBuffer":{"type":"Buffer","data":[38,230,72,122,164,47,213,255,223,92,104,104,158,184,0,224,180,99,17,213]},"announce":[],"urlList":[]}}